<svg xmlns="http://www.w3.org/2000/svg" viewBox="0 0 77.13 103.48"><defs><style>.a{fill:#636464;}.b{fill:none;stroke:#636464;stroke-miterlimit:10;stroke-width:4px;}</style></defs><title>Drag</title><circle class="a" cx="31.78" cy="11.64" r="9.07"/><path d="M69.78,103.48l-47-.33S.78,80.48,2.12,68.48c0,0,1.23-8.2,8-5.67a6,6,0,0,1,3,2.67s5.55,8.63,11.67,8c0,0,1.42-.07,1.67-2.67l-.33-55s-.67-6,5.67-6.33c0,0,5.67-1,5.67,6.33s2.67,31.33,2.67,31.33.67,3,2.67,2.33c0,0,3.67-2.67,6.33-.67l22.67,7.67s5.67,1.33,5.33,6v25S77.33,89.64,69.78,103.48Z"/><path class="b" d="M48.38,1.41"/><line class="b" x1="36.83" y1="12.19" x2="59.16" y2="12.19"/><polyline class="b" points="50.18 2.51 59.85 12.19 50.18 21.86"/><path class="b" d="M14.3,21.86"/><line class="b" x1="25.85" y1="11.09" x2="3.52" y2="11.09"/><polyline class="b" points="12.5 20.76 2.83 11.09 12.5 1.41"/></svg>