<svg id="svg-logo" xmlns="http://www.w3.org/2000/svg" viewBox="0 0 104.65 144.87"><defs><style>.cls-1{fill:#90c400;}</style></defs><title>logo</title><path class="cls-1" d="M47.35,99.85l14-13.77a24.07,24.07,0,1,0,9.83,4.37L54.08,107.26l0,0A5,5,0,1,1,47.35,99.85Z" transform="translate(-12.08 -9.18)"/><path class="cls-1" d="M56.89,75.65a33.84,33.84,0,0,1,12.62,2.47l34.2-33.56,12.08-12.08a2.89,2.89,0,0,0,.12-4.15l-5.68-5.68Z" transform="translate(-12.08 -9.18)"/><path class="cls-1" d="M85.94,76l-7.54,7.4a34,34,0,1,1-46.41,3l-0.07-.07,71.22-70.77-5.51-5.51a3,3,0,0,0-4.27,0L56.6,46.82h0L25,78.17h0c-7.94,8.69-12.93,19.17-12.93,31.36a44.43,44.43,0,1,0,88.86-.14c0-12.19-5.1-22.76-13-31.45Z" transform="translate(-12.08 -9.18)"/></svg>