<svg id="Layer_1" data-name="Layer 1" xmlns="http://www.w3.org/2000/svg" xmlns:xlink="http://www.w3.org/1999/xlink" viewBox="0 0 703 517.5"><defs><style>.cls-1{fill:#d8e1ea;}.cls-2{fill:url(#linear-gradient);}.cls-3{fill:#dfe1ea;}.cls-4{fill:#fff;}.cls-5{fill:#acacae;}.cls-6{fill:#8898aa;}.cls-7{fill:#aebcce;}</style><linearGradient id="linear-gradient" x1="489" y1="420.62" x2="25" y2="420.62" gradientTransform="translate(104.88 -105.12)" gradientUnits="userSpaceOnUse"><stop offset="0" stop-color="#27302d"/><stop offset="1" stop-color="#242952"/></linearGradient></defs><title>clipboard</title><path id="top_edges" data-name="top edges" class="cls-1" d="M422.15,58.39H391.64a9,9,0,0,1-6.6-8.46C384.72,39.05,376.14,30,365.26,30h-5.16a20,20,0,0,0-19.79,19.93s1.48,5-7.54,8.46H304.07a7.93,7.93,0,0,0-8.07,8V107H430.21V66.35A7.92,7.92,0,0,0,422.15,58.39Zm-59.37,8a14.88,14.88,0,1,1,14.88-14.88A14.83,14.83,0,0,1,362.78,66.36Z" transform="translate(-10.38 -30)"/><rect id="clipboard" class="cls-2" x="129.88" y="-36" width="464" height="703" rx="11" ry="11" transform="translate(667 -76.38) rotate(90)"/><rect id="paper" class="cls-3" x="142.43" y="-20.42" width="442.55" height="672.64" transform="translate(669.22 -77.8) rotate(90)"/><g id="circle"><path class="cls-4" d="M370,44.1a10,10,0,0,1-14.16,14.12L352,62a15.37,15.37,0,0,0,21.76-21.71Z" transform="translate(-10.38 -30)"/><path class="cls-5" d="M355.8,58.25A10,10,0,0,1,370,44.13l3.81-3.8A15.37,15.37,0,0,0,352,62Z" transform="translate(-10.38 -30)"/></g><polyline id="bottom_edge" data-name="bottom edge" class="cls-6" points="419.83 67.11 285.62 67.11 285.62 77 419.83 77 419.83 67.11"/><polyline id="_2nd_sedge" data-name="2nd sedge" class="cls-7" points="419.83 40.44 285.62 40.44 285.62 67.11 419.83 67.11 419.83 40.44"/></svg>