<svg xmlns="http://www.w3.org/2000/svg" viewBox="0 0 60.97 60.97"><defs><style>.cls-1{fill:#0067b3;stroke:#fff;stroke-miterlimit:10;}.cls-2{fill:#fff;}</style></defs><title>ADT-Logo</title><g id="Layer_2" data-name="Layer 2"><g id="Layer_1-2" data-name="Layer 1"><polyline class="cls-1" points="42.9 0.5 60.47 18.06 60.47 42.91 42.9 60.47 18.07 60.47 0.5 42.91 0.5 18.06 18.07 0.5 42.9 0.5"/><polyline class="cls-2" points="51.93 20.83 36.2 20.83 36.2 24.98 41.92 24.98 41.92 40.19 46.15 40.19 46.15 24.98 51.93 24.98 51.93 20.83"/><path class="cls-2" d="M39.86,25.74H35.44v-4.1a10.21,10.21,0,0,0-4.18-.87H24.68v9.65l5,9.77h1.6A9.48,9.48,0,0,0,41,30.47a9.94,9.94,0,0,0-1.15-4.73m-8.6,10.19H28.91V25h2.35a5.24,5.24,0,0,1,5.51,5.46A5.24,5.24,0,0,1,31.26,35.93Z"/><path class="cls-2" d="M23.22,38.21l1,2h4.58L18.94,20.82,9,40.19h4.58l1-2h8.57m-4.28-8.39,2.22,4.36H16.69Z"/></g></g></svg>